<mxfile host="app.diagrams.net" modified="2021-03-30T17:47:37.782Z" agent="5.0 (X11)" etag="8mh3zY4TCEX6nFbDuZ0C" version="14.1.4" type="github">
  <diagram id="6Chzy12gjSTDBOHFrsj0" name="Page-1">
    <mxGraphModel dx="1102" dy="533" grid="1" gridSize="10" guides="1" tooltips="1" connect="1" arrows="1" fold="1" page="1" pageScale="1" pageWidth="827" pageHeight="1169" math="0" shadow="0">
      <root>
        <mxCell id="0" />
        <mxCell id="1" parent="0" />
        <mxCell id="TPXto4w5_OEj7KxJ1gtb-1" value="Pack" style="swimlane;fontStyle=1;align=center;verticalAlign=top;childLayout=stackLayout;horizontal=1;startSize=26;horizontalStack=0;resizeParent=1;resizeParentMax=0;resizeLast=0;collapsible=1;marginBottom=0;" parent="1" vertex="1">
          <mxGeometry x="380" y="130" width="160" height="138" as="geometry" />
        </mxCell>
        <mxCell id="TPXto4w5_OEj7KxJ1gtb-2" value="+ id: type" style="text;strokeColor=none;fillColor=none;align=left;verticalAlign=top;spacingLeft=4;spacingRight=4;overflow=hidden;rotatable=0;points=[[0,0.5],[1,0.5]];portConstraint=eastwest;" parent="TPXto4w5_OEj7KxJ1gtb-1" vertex="1">
          <mxGeometry y="26" width="160" height="26" as="geometry" />
        </mxCell>
        <mxCell id="TPXto4w5_OEj7KxJ1gtb-45" value="+ name: type" style="text;strokeColor=none;fillColor=none;align=left;verticalAlign=top;spacingLeft=4;spacingRight=4;overflow=hidden;rotatable=0;points=[[0,0.5],[1,0.5]];portConstraint=eastwest;" parent="TPXto4w5_OEj7KxJ1gtb-1" vertex="1">
          <mxGeometry y="52" width="160" height="26" as="geometry" />
        </mxCell>
        <mxCell id="TPXto4w5_OEj7KxJ1gtb-46" value="+ price: type" style="text;strokeColor=none;fillColor=none;align=left;verticalAlign=top;spacingLeft=4;spacingRight=4;overflow=hidden;rotatable=0;points=[[0,0.5],[1,0.5]];portConstraint=eastwest;" parent="TPXto4w5_OEj7KxJ1gtb-1" vertex="1">
          <mxGeometry y="78" width="160" height="26" as="geometry" />
        </mxCell>
        <mxCell id="TPXto4w5_OEj7KxJ1gtb-3" value="" style="line;strokeWidth=1;fillColor=none;align=left;verticalAlign=middle;spacingTop=-1;spacingLeft=3;spacingRight=3;rotatable=0;labelPosition=right;points=[];portConstraint=eastwest;" parent="TPXto4w5_OEj7KxJ1gtb-1" vertex="1">
          <mxGeometry y="104" width="160" height="8" as="geometry" />
        </mxCell>
        <mxCell id="TPXto4w5_OEj7KxJ1gtb-4" value="+ calculatePrice(type): type" style="text;strokeColor=none;fillColor=none;align=left;verticalAlign=top;spacingLeft=4;spacingRight=4;overflow=hidden;rotatable=0;points=[[0,0.5],[1,0.5]];portConstraint=eastwest;" parent="TPXto4w5_OEj7KxJ1gtb-1" vertex="1">
          <mxGeometry y="112" width="160" height="26" as="geometry" />
        </mxCell>
        <mxCell id="TPXto4w5_OEj7KxJ1gtb-5" value="Product" style="swimlane;fontStyle=0;childLayout=stackLayout;horizontal=1;startSize=26;fillColor=none;horizontalStack=0;resizeParent=1;resizeParentMax=0;resizeLast=0;collapsible=1;marginBottom=0;" parent="1" vertex="1">
          <mxGeometry x="570" y="400" width="140" height="104" as="geometry" />
        </mxCell>
        <mxCell id="TPXto4w5_OEj7KxJ1gtb-6" value="+ id: type" style="text;strokeColor=none;fillColor=none;align=left;verticalAlign=top;spacingLeft=4;spacingRight=4;overflow=hidden;rotatable=0;points=[[0,0.5],[1,0.5]];portConstraint=eastwest;" parent="TPXto4w5_OEj7KxJ1gtb-5" vertex="1">
          <mxGeometry y="26" width="140" height="26" as="geometry" />
        </mxCell>
        <mxCell id="TPXto4w5_OEj7KxJ1gtb-12" value="+ name: type" style="text;strokeColor=none;fillColor=none;align=left;verticalAlign=top;spacingLeft=4;spacingRight=4;overflow=hidden;rotatable=0;points=[[0,0.5],[1,0.5]];portConstraint=eastwest;" parent="TPXto4w5_OEj7KxJ1gtb-5" vertex="1">
          <mxGeometry y="52" width="140" height="26" as="geometry" />
        </mxCell>
        <mxCell id="TPXto4w5_OEj7KxJ1gtb-7" value="+ price: type" style="text;strokeColor=none;fillColor=none;align=left;verticalAlign=top;spacingLeft=4;spacingRight=4;overflow=hidden;rotatable=0;points=[[0,0.5],[1,0.5]];portConstraint=eastwest;" parent="TPXto4w5_OEj7KxJ1gtb-5" vertex="1">
          <mxGeometry y="78" width="140" height="26" as="geometry" />
        </mxCell>
        <mxCell id="TPXto4w5_OEj7KxJ1gtb-14" value="User" style="swimlane;fontStyle=0;childLayout=stackLayout;horizontal=1;startSize=26;fillColor=none;horizontalStack=0;resizeParent=1;resizeParentMax=0;resizeLast=0;collapsible=1;marginBottom=0;" parent="1" vertex="1">
          <mxGeometry x="60" y="280" width="140" height="104" as="geometry" />
        </mxCell>
        <mxCell id="TPXto4w5_OEj7KxJ1gtb-15" value="+ id: type" style="text;strokeColor=none;fillColor=none;align=left;verticalAlign=top;spacingLeft=4;spacingRight=4;overflow=hidden;rotatable=0;points=[[0,0.5],[1,0.5]];portConstraint=eastwest;" parent="TPXto4w5_OEj7KxJ1gtb-14" vertex="1">
          <mxGeometry y="26" width="140" height="26" as="geometry" />
        </mxCell>
        <mxCell id="TPXto4w5_OEj7KxJ1gtb-16" value="+ name: type" style="text;strokeColor=none;fillColor=none;align=left;verticalAlign=top;spacingLeft=4;spacingRight=4;overflow=hidden;rotatable=0;points=[[0,0.5],[1,0.5]];portConstraint=eastwest;" parent="TPXto4w5_OEj7KxJ1gtb-14" vertex="1">
          <mxGeometry y="52" width="140" height="26" as="geometry" />
        </mxCell>
        <mxCell id="TPXto4w5_OEj7KxJ1gtb-17" value="+ field: type" style="text;strokeColor=none;fillColor=none;align=left;verticalAlign=top;spacingLeft=4;spacingRight=4;overflow=hidden;rotatable=0;points=[[0,0.5],[1,0.5]];portConstraint=eastwest;" parent="TPXto4w5_OEj7KxJ1gtb-14" vertex="1">
          <mxGeometry y="78" width="140" height="26" as="geometry" />
        </mxCell>
        <mxCell id="TPXto4w5_OEj7KxJ1gtb-22" value="achète" style="endArrow=open;html=1;endSize=12;startArrow=none;startSize=14;startFill=0;fontSize=15;endFill=0;entryX=0.006;entryY=0.769;entryDx=0;entryDy=0;entryPerimeter=0;exitX=1;exitY=0.5;exitDx=0;exitDy=0;" parent="1" source="TPXto4w5_OEj7KxJ1gtb-15" target="TPXto4w5_OEj7KxJ1gtb-2" edge="1">
          <mxGeometry relative="1" as="geometry">
            <mxPoint x="-180" y="230" as="sourcePoint" />
            <mxPoint x="-20" y="230" as="targetPoint" />
          </mxGeometry>
        </mxCell>
        <mxCell id="TPXto4w5_OEj7KxJ1gtb-23" value="1" style="edgeLabel;resizable=0;html=1;align=left;verticalAlign=top;" parent="TPXto4w5_OEj7KxJ1gtb-22" connectable="0" vertex="1">
          <mxGeometry x="-1" relative="1" as="geometry" />
        </mxCell>
        <mxCell id="TPXto4w5_OEj7KxJ1gtb-24" value="*" style="edgeLabel;resizable=0;html=1;align=right;verticalAlign=top;" parent="TPXto4w5_OEj7KxJ1gtb-22" connectable="0" vertex="1">
          <mxGeometry x="1" relative="1" as="geometry" />
        </mxCell>
        <mxCell id="TPXto4w5_OEj7KxJ1gtb-26" value="achète" style="endArrow=open;html=1;endSize=12;startArrow=none;startSize=14;startFill=0;fontSize=15;endFill=0;entryX=0;entryY=0.077;entryDx=0;entryDy=0;entryPerimeter=0;exitX=1.029;exitY=0.269;exitDx=0;exitDy=0;exitPerimeter=0;" parent="1" source="TPXto4w5_OEj7KxJ1gtb-17" target="TPXto4w5_OEj7KxJ1gtb-7" edge="1">
          <mxGeometry relative="1" as="geometry">
            <mxPoint x="220" y="450" as="sourcePoint" />
            <mxPoint x="390.96000000000004" y="305.994" as="targetPoint" />
          </mxGeometry>
        </mxCell>
        <mxCell id="TPXto4w5_OEj7KxJ1gtb-27" value="1" style="edgeLabel;resizable=0;html=1;align=left;verticalAlign=top;" parent="TPXto4w5_OEj7KxJ1gtb-26" connectable="0" vertex="1">
          <mxGeometry x="-1" relative="1" as="geometry" />
        </mxCell>
        <mxCell id="TPXto4w5_OEj7KxJ1gtb-28" value="*" style="edgeLabel;resizable=0;html=1;align=right;verticalAlign=top;" parent="TPXto4w5_OEj7KxJ1gtb-26" connectable="0" vertex="1">
          <mxGeometry x="1" relative="1" as="geometry" />
        </mxCell>
        <mxCell id="TPXto4w5_OEj7KxJ1gtb-29" value="contient" style="endArrow=open;html=1;endSize=12;startArrow=none;startSize=14;startFill=0;fontSize=15;endFill=0;entryX=0;entryY=0.25;entryDx=0;entryDy=0;exitX=0.488;exitY=1;exitDx=0;exitDy=0;exitPerimeter=0;" parent="1" source="TPXto4w5_OEj7KxJ1gtb-4" target="TPXto4w5_OEj7KxJ1gtb-5" edge="1">
          <mxGeometry relative="1" as="geometry">
            <mxPoint x="214.05999999999995" y="374.994" as="sourcePoint" />
            <mxPoint x="580" y="490.00199999999995" as="targetPoint" />
          </mxGeometry>
        </mxCell>
        <mxCell id="TPXto4w5_OEj7KxJ1gtb-30" value="1" style="edgeLabel;resizable=0;html=1;align=left;verticalAlign=top;" parent="TPXto4w5_OEj7KxJ1gtb-29" connectable="0" vertex="1">
          <mxGeometry x="-1" relative="1" as="geometry" />
        </mxCell>
        <mxCell id="TPXto4w5_OEj7KxJ1gtb-31" value="*" style="edgeLabel;resizable=0;html=1;align=right;verticalAlign=top;" parent="TPXto4w5_OEj7KxJ1gtb-29" connectable="0" vertex="1">
          <mxGeometry x="1" relative="1" as="geometry" />
        </mxCell>
      </root>
    </mxGraphModel>
  </diagram>
</mxfile>
